<?xml version="1.0" standalone="no"?>
<!DOCTYPE svg PUBLIC "-//W3C//DTD SVG 20010904//EN"
 "http://www.w3.org/TR/2001/REC-SVG-20010904/DTD/svg10.dtd">
<svg version="1.0" xmlns="http://www.w3.org/2000/svg"
 width="551.000000pt" height="551.000000pt" viewBox="0 0 551.000000 551.000000"
 preserveAspectRatio="xMidYMid meet">
<metadata>
Created by potrace 1.11, written by Peter Selinger 2001-2013
</metadata>
<g transform="translate(0.000000,551.000000) scale(0.100000,-0.100000)"
fill="#000000" stroke="none">
<path d="M3035 4905 c-154 -35 -268 -172 -277 -330 -5 -110 34 -209 114 -287
l51 -49 -47 -152 c-26 -84 -48 -156 -50 -162 -1 -5 -9 -32 -18 -60 -9 -27 -37
-117 -63 -200 -25 -82 -50 -159 -55 -171 -8 -21 -8 -21 -652 -21 -353 0 -671
-3 -706 -7 -232 -25 -372 -146 -415 -361 -11 -57 -14 -212 -13 -835 2 -757 2
-766 24 -835 52 -167 162 -269 336 -310 94 -22 2891 -22 2986 1 188 44 317
181 347 371 9 59 11 1510 1 1574 -3 25 -16 74 -28 109 -46 137 -138 223 -280
264 -96 27 -141 29 -792 29 -351 0 -638 3 -638 7 0 3 32 107 70 230 39 124 72
230 74 235 1 6 8 30 15 55 7 25 23 77 36 115 l22 70 58 2 c71 3 116 17 177 55
144 90 211 270 158 423 -64 186 -243 284 -435 240z m-885 -2271 c64 -30 160
-115 160 -141 0 -7 4 -13 9 -13 18 0 52 -107 58 -181 10 -134 -31 -243 -126
-332 -99 -93 -233 -132 -356 -104 -22 5 -44 10 -50 11 -70 13 -197 120 -238
202 -60 120 -56 279 10 393 32 56 101 131 119 131 8 0 14 4 14 9 0 8 82 44
125 55 11 3 63 4 115 3 83 -2 104 -7 160 -33z m1560 3 c141 -67 227 -199 234
-357 6 -121 -34 -220 -124 -309 -198 -196 -531 -135 -653 119 -29 60 -31 73
-31 170 -1 113 19 183 67 244 98 125 190 168 352 163 83 -3 109 -8 155 -30z"/>
<path d="M1782 980 c-54 -11 -79 -29 -114 -81 -23 -34 -28 -53 -28 -101 0 -75
25 -125 81 -164 l42 -29 886 -3 c612 -2 897 0 923 8 135 39 182 215 85 318
-56 60 -1 57 -957 59 -481 0 -894 -3 -918 -7z"/>
</g>
</svg>
